<?xml version="1.0" encoding="us-ascii" standalone="no"?><svg xmlns="http://www.w3.org/2000/svg" xmlns:xlink="http://www.w3.org/1999/xlink" contentStyleType="text/css" height="671px" preserveAspectRatio="none" style="width:419px;height:671px;background:#FFFFFF;" version="1.1" viewBox="0 0 419 671" width="419px" zoomAndPan="magnify"><defs/><g><!--cluster UI Module--><g id="cluster_UI Module"><path d="M124.5,6 L202.5,6 A3.75,3.75 0 0 1 205,8.5 L212,28.2969 L291.5,28.2969 A2.5,2.5 0 0 1 294,30.7969 L294,207.09 A2.5,2.5 0 0 1 291.5,209.59 L124.5,209.59 A2.5,2.5 0 0 1 122,207.09 L122,8.5 A2.5,2.5 0 0 1 124.5,6 " fill="none" style="stroke:#000000;stroke-width:1.5;"/><line style="stroke:#000000;stroke-width:1.5;" x1="122" x2="212" y1="28.2969" y2="28.2969"/><text fill="#000000" font-family="sans-serif" font-size="14" font-weight="bold" lengthAdjust="spacing" textLength="77" x="126" y="20.9951">UI Module</text></g><!--cluster Core--><g id="cluster_Core"><path d="M8.5,233.59 L47.5,233.59 A3.75,3.75 0 0 1 50,236.09 L57,255.8869 L225.5,255.8869 A2.5,2.5 0 0 1 228,258.3869 L228,434.69 A2.5,2.5 0 0 1 225.5,437.19 L8.5,437.19 A2.5,2.5 0 0 1 6,434.69 L6,236.09 A2.5,2.5 0 0 1 8.5,233.59 " fill="none" style="stroke:#000000;stroke-width:1.5;"/><line style="stroke:#000000;stroke-width:1.5;" x1="6" x2="57" y1="255.8869" y2="255.8869"/><text fill="#000000" font-family="sans-serif" font-size="14" font-weight="bold" lengthAdjust="spacing" textLength="38" x="10" y="248.5851">Core</text></g><!--cluster Database--><g id="cluster_Database"><path d="M13.5,461.19 L87.5,461.19 A3.75,3.75 0 0 1 90,463.69 L97,483.4869 L287.5,483.4869 A2.5,2.5 0 0 1 290,485.9869 L290,662.28 A2.5,2.5 0 0 1 287.5,664.78 L13.5,664.78 A2.5,2.5 0 0 1 11,662.28 L11,463.69 A2.5,2.5 0 0 1 13.5,461.19 " fill="none" style="stroke:#000000;stroke-width:1.5;"/><line style="stroke:#000000;stroke-width:1.5;" x1="11" x2="97" y1="483.4869" y2="483.4869"/><text fill="#000000" font-family="sans-serif" font-size="14" font-weight="bold" lengthAdjust="spacing" textLength="73" x="15" y="476.1851">Database</text></g><!--cluster Kafka--><g id="cluster_Kafka"><path d="M254.5,339.89 L299.5,339.89 A3.75,3.75 0 0 1 302,342.39 L309,362.1869 L409.5,362.1869 A2.5,2.5 0 0 1 412,364.6869 L412,434.69 A2.5,2.5 0 0 1 409.5,437.19 L254.5,437.19 A2.5,2.5 0 0 1 252,434.69 L252,342.39 A2.5,2.5 0 0 1 254.5,339.89 " fill="none" style="stroke:#000000;stroke-width:1.5;"/><line style="stroke:#000000;stroke-width:1.5;" x1="252" x2="309" y1="362.1869" y2="362.1869"/><text fill="#000000" font-family="sans-serif" font-size="14" font-weight="bold" lengthAdjust="spacing" textLength="44" x="256" y="354.8851">Kafka</text></g><!--entity UI--><g id="elem_UI"><rect fill="#F1F1F1" height="46.2969" rx="2.5" ry="2.5" style="stroke:#181818;stroke-width:0.5;" width="53" x="181.5" y="41"/><rect fill="#F1F1F1" height="10" style="stroke:#181818;stroke-width:0.5;" width="15" x="214.5" y="46"/><rect fill="#F1F1F1" height="2" style="stroke:#181818;stroke-width:0.5;" width="4" x="212.5" y="48"/><rect fill="#F1F1F1" height="2" style="stroke:#181818;stroke-width:0.5;" width="4" x="212.5" y="52"/><text fill="#000000" font-family="sans-serif" font-size="14" lengthAdjust="spacing" textLength="13" x="196.5" y="73.9951">UI</text></g><!--entity CoreController--><g id="elem_CoreController"><rect fill="#F1F1F1" height="46.2969" rx="2.5" ry="2.5" style="stroke:#181818;stroke-width:0.5;" width="140" x="138" y="147.3"/><rect fill="#F1F1F1" height="10" style="stroke:#181818;stroke-width:0.5;" width="15" x="258" y="152.3"/><rect fill="#F1F1F1" height="2" style="stroke:#181818;stroke-width:0.5;" width="4" x="256" y="154.3"/><rect fill="#F1F1F1" height="2" style="stroke:#181818;stroke-width:0.5;" width="4" x="256" y="158.3"/><text fill="#000000" font-family="sans-serif" font-size="14" lengthAdjust="spacing" textLength="100" x="153" y="180.2951">CoreController</text></g><!--entity CoreService--><g id="elem_CoreService"><rect fill="#F1F1F1" height="46.2969" rx="2.5" ry="2.5" style="stroke:#181818;stroke-width:0.5;" width="123" x="89.5" y="268.59"/><rect fill="#F1F1F1" height="10" style="stroke:#181818;stroke-width:0.5;" width="15" x="192.5" y="273.59"/><rect fill="#F1F1F1" height="2" style="stroke:#181818;stroke-width:0.5;" width="4" x="190.5" y="275.59"/><rect fill="#F1F1F1" height="2" style="stroke:#181818;stroke-width:0.5;" width="4" x="190.5" y="279.59"/><text fill="#000000" font-family="sans-serif" font-size="14" lengthAdjust="spacing" textLength="83" x="104.5" y="301.5851">CoreService</text></g><!--entity PersistenceController--><g id="elem_PersistenceController"><rect fill="#F1F1F1" height="46.2969" rx="2.5" ry="2.5" style="stroke:#181818;stroke-width:0.5;" width="189" x="22.5" y="374.89"/><rect fill="#F1F1F1" height="10" style="stroke:#181818;stroke-width:0.5;" width="15" x="191.5" y="379.89"/><rect fill="#F1F1F1" height="2" style="stroke:#181818;stroke-width:0.5;" width="4" x="189.5" y="381.89"/><rect fill="#F1F1F1" height="2" style="stroke:#181818;stroke-width:0.5;" width="4" x="189.5" y="385.89"/><text fill="#000000" font-family="sans-serif" font-size="14" lengthAdjust="spacing" textLength="149" x="37.5" y="407.8851">PersistenceController</text></g><!--entity PersistenceService--><g id="elem_PersistenceService"><rect fill="#F1F1F1" height="46.2969" rx="2.5" ry="2.5" style="stroke:#181818;stroke-width:0.5;" width="172" x="31" y="496.19"/><rect fill="#F1F1F1" height="10" style="stroke:#181818;stroke-width:0.5;" width="15" x="183" y="501.19"/><rect fill="#F1F1F1" height="2" style="stroke:#181818;stroke-width:0.5;" width="4" x="181" y="503.19"/><rect fill="#F1F1F1" height="2" style="stroke:#181818;stroke-width:0.5;" width="4" x="181" y="507.19"/><text fill="#000000" font-family="sans-serif" font-size="14" lengthAdjust="spacing" textLength="132" x="46" y="529.1851">PersistenceService</text></g><!--entity Postgres--><g id="elem_Postgres"><rect fill="#F1F1F1" height="46.2969" rx="2.5" ry="2.5" style="stroke:#181818;stroke-width:0.5;" width="102" x="27" y="602.48"/><rect fill="#F1F1F1" height="10" style="stroke:#181818;stroke-width:0.5;" width="15" x="109" y="607.48"/><rect fill="#F1F1F1" height="2" style="stroke:#181818;stroke-width:0.5;" width="4" x="107" y="609.48"/><rect fill="#F1F1F1" height="2" style="stroke:#181818;stroke-width:0.5;" width="4" x="107" y="613.48"/><text fill="#000000" font-family="sans-serif" font-size="14" lengthAdjust="spacing" textLength="62" x="42" y="635.4751">Postgres</text></g><!--entity MongoDB--><g id="elem_MongoDB"><rect fill="#F1F1F1" height="46.2969" rx="2.5" ry="2.5" style="stroke:#181818;stroke-width:0.5;" width="109" x="164.5" y="602.48"/><rect fill="#F1F1F1" height="10" style="stroke:#181818;stroke-width:0.5;" width="15" x="253.5" y="607.48"/><rect fill="#F1F1F1" height="2" style="stroke:#181818;stroke-width:0.5;" width="4" x="251.5" y="609.48"/><rect fill="#F1F1F1" height="2" style="stroke:#181818;stroke-width:0.5;" width="4" x="251.5" y="613.48"/><text fill="#000000" font-family="sans-serif" font-size="14" lengthAdjust="spacing" textLength="69" x="179.5" y="635.4751">MongoDB</text></g><!--entity KafkaService--><g id="elem_KafkaService"><rect fill="#F1F1F1" height="46.2969" rx="2.5" ry="2.5" style="stroke:#181818;stroke-width:0.5;" width="127" x="268.5" y="374.89"/><rect fill="#F1F1F1" height="10" style="stroke:#181818;stroke-width:0.5;" width="15" x="375.5" y="379.89"/><rect fill="#F1F1F1" height="2" style="stroke:#181818;stroke-width:0.5;" width="4" x="373.5" y="381.89"/><rect fill="#F1F1F1" height="2" style="stroke:#181818;stroke-width:0.5;" width="4" x="373.5" y="385.89"/><text fill="#000000" font-family="sans-serif" font-size="14" lengthAdjust="spacing" textLength="87" x="283.5" y="407.8851">KafkaService</text></g><!--link UI to CoreController--><g id="link_UI_CoreController"><path d="M208,87.78 C208,105.27 208,123.37 208,140.86 " fill="none" id="UI-to-CoreController" style="stroke:#181818;stroke-width:1.0;"/><polygon fill="#181818" points="208,146.86,212,137.86,208,141.86,204,137.86,208,146.86" style="stroke:#181818;stroke-width:1.0;"/></g><!--link CoreController to CoreService--><g id="link_CoreController_CoreService"><path d="M197.28,193.88 C187.09,215.21 174.4383,241.697 164.2583,262.987 " fill="none" id="CoreController-to-CoreService" style="stroke:#181818;stroke-width:1.0;"/><polygon fill="#181818" points="161.67,268.4,169.1611,262.006,163.8269,263.8891,161.9437,258.5549,161.67,268.4" style="stroke:#181818;stroke-width:1.0;"/></g><!--link CoreService to PersistenceController--><g id="link_CoreService_PersistenceController"><path d="M143.62,315.37 C137.92,332.87 131.9201,351.2656 126.2201,368.7456 " fill="none" id="CoreService-to-PersistenceController" style="stroke:#181818;stroke-width:1.0;"/><polygon fill="#181818" points="124.36,374.45,130.9531,367.1335,125.9101,369.6964,123.3473,364.6533,124.36,374.45" style="stroke:#181818;stroke-width:1.0;"/></g><!--link PersistenceController to PersistenceService--><g id="link_PersistenceController_PersistenceService"><path d="M117,421.48 C117,442.81 117,468.7 117,490 " fill="none" id="PersistenceController-to-PersistenceService" style="stroke:#181818;stroke-width:1.0;"/><polygon fill="#181818" points="117,496,121,487,117,491,113,487,117,496" style="stroke:#181818;stroke-width:1.0;"/></g><!--link PersistenceService to Postgres--><g id="link_PersistenceService_Postgres"><path d="M108.54,542.97 C102,560.46 95.0797,578.9394 88.5497,596.4194 " fill="none" id="PersistenceService-to-Postgres" style="stroke:#181818;stroke-width:1.0;"/><polygon fill="#181818" points="86.45,602.04,93.3466,595.0089,88.1997,597.3562,85.8525,592.2093,86.45,602.04" style="stroke:#181818;stroke-width:1.0;"/></g><!--link PersistenceService to MongoDB--><g id="link_PersistenceService_MongoDB"><path d="M139.13,542.97 C156.24,560.46 175.6142,580.271 192.7142,597.751 " fill="none" id="PersistenceService-to-MongoDB" style="stroke:#181818;stroke-width:1.0;"/><polygon fill="#181818" points="196.91,602.04,193.4757,592.8093,193.4135,598.4658,187.757,598.4037,196.91,602.04" style="stroke:#181818;stroke-width:1.0;"/></g><!--link CoreService to KafkaService--><g id="link_CoreService_KafkaService"><path d="M196.96,315.26 C207.26,320.54 218.08,326.28 228,331.89 C251.73,345.32 272.6861,358.3605 292.7561,371.2905 " fill="none" id="CoreService-to-KafkaService" style="stroke:#181818;stroke-width:1.0;"/><polygon fill="#181818" points="297.8,374.54,292.4005,366.3032,293.5968,371.8321,288.0678,373.0283,297.8,374.54" style="stroke:#181818;stroke-width:1.0;"/></g><!--link CoreController to KafkaService--><g id="link_CoreController_KafkaService"><path d="M220.34,193.9 C244.11,237.14 293.0897,326.242 316.8197,369.412 " fill="none" id="CoreController-to-KafkaService" style="stroke:#181818;stroke-width:1.0;"/><polygon fill="#181818" points="319.71,374.67,318.88,364.8562,317.3015,370.2883,311.8693,368.7098,319.71,374.67" style="stroke:#181818;stroke-width:1.0;"/></g><!--SRC=[TP2n3eCW48PtdeAu-meTgejfJ4mQ9zFXQg_4Q3m3j4lZkxUGimLY9mxkv-FZ5kX7K2Ypjf8rtHuJPl8bfEpQwkAMWZGMD5jDquJQ7Ns2UNwGSKEiOjb8hiCGLvvHFuSUFQr1RGPZSUuJQ4pxFi1tES0xtzqbXHObMBY2sKo2V22qIqdvFuck8MELHkC_KzEig3mcd4YIu_yJp0Z5Jt0VWQrz7VYcKmZx-rEC4kiR]--></g></svg>