<?xml version="1.0" encoding="us-ascii" standalone="no"?><svg xmlns="http://www.w3.org/2000/svg" xmlns:xlink="http://www.w3.org/1999/xlink" contentStyleType="text/css" height="884px" preserveAspectRatio="none" style="width:419px;height:884px;background:#FFFFFF;" version="1.1" viewBox="0 0 419 884" width="419px" zoomAndPan="magnify"><defs/><g><!--cluster UI Module--><g id="cluster_UI Module"><path d="M124.5,6 L202.5,6 A3.75,3.75 0 0 1 205,8.5 L212,28.2969 L291.5,28.2969 A2.5,2.5 0 0 1 294,30.7969 L294,207.09 A2.5,2.5 0 0 1 291.5,209.59 L124.5,209.59 A2.5,2.5 0 0 1 122,207.09 L122,8.5 A2.5,2.5 0 0 1 124.5,6 " fill="none" style="stroke:#000000;stroke-width:1.5;"/><line style="stroke:#000000;stroke-width:1.5;" x1="122" x2="212" y1="28.2969" y2="28.2969"/><text fill="#000000" font-family="sans-serif" font-size="14" font-weight="bold" lengthAdjust="spacing" textLength="77" x="126" y="20.9951">UI Module</text></g><!--cluster Core--><g id="cluster_Core"><path d="M8.5,233.59 L47.5,233.59 A3.75,3.75 0 0 1 50,236.09 L57,255.8869 L225.5,255.8869 A2.5,2.5 0 0 1 228,258.3869 L228,540.98 A2.5,2.5 0 0 1 225.5,543.48 L8.5,543.48 A2.5,2.5 0 0 1 6,540.98 L6,236.09 A2.5,2.5 0 0 1 8.5,233.59 " fill="none" style="stroke:#000000;stroke-width:1.5;"/><line style="stroke:#000000;stroke-width:1.5;" x1="6" x2="57" y1="255.8869" y2="255.8869"/><text fill="#000000" font-family="sans-serif" font-size="14" font-weight="bold" lengthAdjust="spacing" textLength="38" x="10" y="248.5851">Core</text></g><!--cluster Database--><g id="cluster_Database"><path d="M13.5,567.48 L87.5,567.48 A3.75,3.75 0 0 1 90,569.98 L97,589.7769 L287.5,589.7769 A2.5,2.5 0 0 1 290,592.2769 L290,874.87 A2.5,2.5 0 0 1 287.5,877.37 L13.5,877.37 A2.5,2.5 0 0 1 11,874.87 L11,569.98 A2.5,2.5 0 0 1 13.5,567.48 " fill="none" style="stroke:#000000;stroke-width:1.5;"/><line style="stroke:#000000;stroke-width:1.5;" x1="11" x2="97" y1="589.7769" y2="589.7769"/><text fill="#000000" font-family="sans-serif" font-size="14" font-weight="bold" lengthAdjust="spacing" textLength="73" x="15" y="582.4751">Database</text></g><!--cluster Kafka--><g id="cluster_Kafka"><path d="M254.5,339.89 L299.5,339.89 A3.75,3.75 0 0 1 302,342.39 L309,362.1869 L409.5,362.1869 A2.5,2.5 0 0 1 412,364.6869 L412,434.68 A2.5,2.5 0 0 1 409.5,437.18 L254.5,437.18 A2.5,2.5 0 0 1 252,434.68 L252,342.39 A2.5,2.5 0 0 1 254.5,339.89 " fill="none" style="stroke:#000000;stroke-width:1.5;"/><line style="stroke:#000000;stroke-width:1.5;" x1="252" x2="309" y1="362.1869" y2="362.1869"/><text fill="#000000" font-family="sans-serif" font-size="14" font-weight="bold" lengthAdjust="spacing" textLength="44" x="256" y="354.8851">Kafka</text></g><!--entity UI--><g id="elem_UI"><rect fill="#F1F1F1" height="46.2969" rx="2.5" ry="2.5" style="stroke:#181818;stroke-width:0.5;" width="53" x="181.5" y="41"/><rect fill="#F1F1F1" height="10" style="stroke:#181818;stroke-width:0.5;" width="15" x="214.5" y="46"/><rect fill="#F1F1F1" height="2" style="stroke:#181818;stroke-width:0.5;" width="4" x="212.5" y="48"/><rect fill="#F1F1F1" height="2" style="stroke:#181818;stroke-width:0.5;" width="4" x="212.5" y="52"/><text fill="#000000" font-family="sans-serif" font-size="14" lengthAdjust="spacing" textLength="13" x="196.5" y="73.9951">UI</text></g><!--entity CoreController--><g id="elem_CoreController"><rect fill="#F1F1F1" height="46.2969" rx="2.5" ry="2.5" style="stroke:#181818;stroke-width:0.5;" width="140" x="138" y="147.29"/><rect fill="#F1F1F1" height="10" style="stroke:#181818;stroke-width:0.5;" width="15" x="258" y="152.29"/><rect fill="#F1F1F1" height="2" style="stroke:#181818;stroke-width:0.5;" width="4" x="256" y="154.29"/><rect fill="#F1F1F1" height="2" style="stroke:#181818;stroke-width:0.5;" width="4" x="256" y="158.29"/><text fill="#000000" font-family="sans-serif" font-size="14" lengthAdjust="spacing" textLength="100" x="153" y="180.2851">CoreController</text></g><!--entity CoreService--><g id="elem_CoreService"><rect fill="#F1F1F1" height="46.2969" rx="2.5" ry="2.5" style="stroke:#181818;stroke-width:0.5;" width="123" x="89.5" y="268.59"/><rect fill="#F1F1F1" height="10" style="stroke:#181818;stroke-width:0.5;" width="15" x="192.5" y="273.59"/><rect fill="#F1F1F1" height="2" style="stroke:#181818;stroke-width:0.5;" width="4" x="190.5" y="275.59"/><rect fill="#F1F1F1" height="2" style="stroke:#181818;stroke-width:0.5;" width="4" x="190.5" y="279.59"/><text fill="#000000" font-family="sans-serif" font-size="14" lengthAdjust="spacing" textLength="83" x="104.5" y="301.5851">CoreService</text></g><!--entity Controller--><g id="elem_Controller"><rect fill="#F1F1F1" height="46.2969" rx="2.5" ry="2.5" style="stroke:#181818;stroke-width:0.5;" width="107" x="63.5" y="374.89"/><rect fill="#F1F1F1" height="10" style="stroke:#181818;stroke-width:0.5;" width="15" x="150.5" y="379.89"/><rect fill="#F1F1F1" height="2" style="stroke:#181818;stroke-width:0.5;" width="4" x="148.5" y="381.89"/><rect fill="#F1F1F1" height="2" style="stroke:#181818;stroke-width:0.5;" width="4" x="148.5" y="385.89"/><text fill="#000000" font-family="sans-serif" font-size="14" lengthAdjust="spacing" textLength="67" x="78.5" y="407.8851">Controller</text></g><!--entity PersistenceController--><g id="elem_PersistenceController"><rect fill="#F1F1F1" height="46.2969" rx="2.5" ry="2.5" style="stroke:#181818;stroke-width:0.5;" width="189" x="22.5" y="481.18"/><rect fill="#F1F1F1" height="10" style="stroke:#181818;stroke-width:0.5;" width="15" x="191.5" y="486.18"/><rect fill="#F1F1F1" height="2" style="stroke:#181818;stroke-width:0.5;" width="4" x="189.5" y="488.18"/><rect fill="#F1F1F1" height="2" style="stroke:#181818;stroke-width:0.5;" width="4" x="189.5" y="492.18"/><text fill="#000000" font-family="sans-serif" font-size="14" lengthAdjust="spacing" textLength="149" x="37.5" y="514.1751">PersistenceController</text></g><!--entity PersistenceService--><g id="elem_PersistenceService"><rect fill="#F1F1F1" height="46.2969" rx="2.5" ry="2.5" style="stroke:#181818;stroke-width:0.5;" width="172" x="31" y="602.48"/><rect fill="#F1F1F1" height="10" style="stroke:#181818;stroke-width:0.5;" width="15" x="183" y="607.48"/><rect fill="#F1F1F1" height="2" style="stroke:#181818;stroke-width:0.5;" width="4" x="181" y="609.48"/><rect fill="#F1F1F1" height="2" style="stroke:#181818;stroke-width:0.5;" width="4" x="181" y="613.48"/><text fill="#000000" font-family="sans-serif" font-size="14" lengthAdjust="spacing" textLength="132" x="46" y="635.4751">PersistenceService</text></g><!--entity DAOInterface--><g id="elem_DAOInterface"><rect fill="#F1F1F1" height="46.2969" rx="2.5" ry="2.5" style="stroke:#181818;stroke-width:0.5;" width="131" x="28.5" y="708.78"/><rect fill="#F1F1F1" height="10" style="stroke:#181818;stroke-width:0.5;" width="15" x="139.5" y="713.78"/><rect fill="#F1F1F1" height="2" style="stroke:#181818;stroke-width:0.5;" width="4" x="137.5" y="715.78"/><rect fill="#F1F1F1" height="2" style="stroke:#181818;stroke-width:0.5;" width="4" x="137.5" y="719.78"/><text fill="#000000" font-family="sans-serif" font-size="14" lengthAdjust="spacing" textLength="91" x="43.5" y="741.7751">DAOInterface</text></g><!--entity Postgres--><g id="elem_Postgres"><rect fill="#F1F1F1" height="46.2969" rx="2.5" ry="2.5" style="stroke:#181818;stroke-width:0.5;" width="102" x="27" y="815.07"/><rect fill="#F1F1F1" height="10" style="stroke:#181818;stroke-width:0.5;" width="15" x="109" y="820.07"/><rect fill="#F1F1F1" height="2" style="stroke:#181818;stroke-width:0.5;" width="4" x="107" y="822.07"/><rect fill="#F1F1F1" height="2" style="stroke:#181818;stroke-width:0.5;" width="4" x="107" y="826.07"/><text fill="#000000" font-family="sans-serif" font-size="14" lengthAdjust="spacing" textLength="62" x="42" y="848.0651">Postgres</text></g><!--entity MongoDB--><g id="elem_MongoDB"><rect fill="#F1F1F1" height="46.2969" rx="2.5" ry="2.5" style="stroke:#181818;stroke-width:0.5;" width="109" x="164.5" y="815.07"/><rect fill="#F1F1F1" height="10" style="stroke:#181818;stroke-width:0.5;" width="15" x="253.5" y="820.07"/><rect fill="#F1F1F1" height="2" style="stroke:#181818;stroke-width:0.5;" width="4" x="251.5" y="822.07"/><rect fill="#F1F1F1" height="2" style="stroke:#181818;stroke-width:0.5;" width="4" x="251.5" y="826.07"/><text fill="#000000" font-family="sans-serif" font-size="14" lengthAdjust="spacing" textLength="69" x="179.5" y="848.0651">MongoDB</text></g><!--entity FileIO--><g id="elem_FileIO"><rect fill="#F1F1F1" height="46.2969" rx="2.5" ry="2.5" style="stroke:#181818;stroke-width:0.5;" width="77" x="194.5" y="708.78"/><rect fill="#F1F1F1" height="10" style="stroke:#181818;stroke-width:0.5;" width="15" x="251.5" y="713.78"/><rect fill="#F1F1F1" height="2" style="stroke:#181818;stroke-width:0.5;" width="4" x="249.5" y="715.78"/><rect fill="#F1F1F1" height="2" style="stroke:#181818;stroke-width:0.5;" width="4" x="249.5" y="719.78"/><text fill="#000000" font-family="sans-serif" font-size="14" lengthAdjust="spacing" textLength="37" x="209.5" y="741.7751">FileIO</text></g><!--entity KafkaService--><g id="elem_KafkaService"><rect fill="#F1F1F1" height="46.2969" rx="2.5" ry="2.5" style="stroke:#181818;stroke-width:0.5;" width="127" x="268.5" y="374.89"/><rect fill="#F1F1F1" height="10" style="stroke:#181818;stroke-width:0.5;" width="15" x="375.5" y="379.89"/><rect fill="#F1F1F1" height="2" style="stroke:#181818;stroke-width:0.5;" width="4" x="373.5" y="381.89"/><rect fill="#F1F1F1" height="2" style="stroke:#181818;stroke-width:0.5;" width="4" x="373.5" y="385.89"/><text fill="#000000" font-family="sans-serif" font-size="14" lengthAdjust="spacing" textLength="87" x="283.5" y="407.8851">KafkaService</text></g><!--link UI to CoreController--><g id="link_UI_CoreController"><path d="M208,87.77 C208,105.27 208,123.37 208,140.85 " fill="none" id="UI-to-CoreController" style="stroke:#181818;stroke-width:1.0;"/><polygon fill="#181818" points="208,146.85,212,137.85,208,141.85,204,137.85,208,146.85" style="stroke:#181818;stroke-width:1.0;"/></g><!--link CoreService to Controller--><g id="link_CoreService_Controller"><path d="M143.62,315.37 C137.92,332.86 131.9192,351.2553 126.2192,368.7453 " fill="none" id="CoreService-to-Controller" style="stroke:#181818;stroke-width:1.0;"/><polygon fill="#181818" points="124.36,374.45,130.9519,367.1324,125.9093,369.6961,123.3456,364.6535,124.36,374.45" style="stroke:#181818;stroke-width:1.0;"/></g><!--link Controller to PersistenceController--><g id="link_Controller_PersistenceController"><path d="M106.27,421.66 C103.57,439.16 102.6641,457.3303 105.3641,474.8103 " fill="none" id="Controller-to-PersistenceController" style="stroke:#181818;stroke-width:1.0;"/><polygon fill="#181818" points="106.28,480.74,108.8593,471.2349,105.5167,475.7986,100.953,472.4561,106.28,480.74" style="stroke:#181818;stroke-width:1.0;"/></g><!--link Controller to PersistenceController--><g id="link_Controller_PersistenceController"><path d="M128.36,421.66 C131.22,439.16 132.1788,457.3387 129.3188,474.8187 " fill="none" id="Controller-to-PersistenceController-1" style="stroke:#181818;stroke-width:1.0;"/><polygon fill="#181818" points="128.35,480.74,133.7507,472.504,129.1573,475.8056,125.8557,471.2122,128.35,480.74" style="stroke:#181818;stroke-width:1.0;"/></g><!--link PersistenceService to DAOInterface--><g id="link_PersistenceService_DAOInterface"><path d="M112.01,649.26 C108.15,666.75 104.1338,685.0011 100.2738,702.4811 " fill="none" id="PersistenceService-to-DAOInterface" style="stroke:#181818;stroke-width:1.0;"/><polygon fill="#181818" points="98.98,708.34,104.8266,700.4142,100.0581,703.4576,97.0148,698.6892,98.98,708.34" style="stroke:#181818;stroke-width:1.0;"/></g><!--link DAOInterface to Postgres--><g id="link_DAOInterface_Postgres"><path d="M90.53,755.56 C87.84,773.05 85.0626,791.2198 82.3726,808.6998 " fill="none" id="DAOInterface-to-Postgres" style="stroke:#181818;stroke-width:1.0;"/><polygon fill="#181818" points="81.46,814.63,86.7824,806.3431,82.2205,809.6882,78.8754,805.1263,81.46,814.63" style="stroke:#181818;stroke-width:1.0;"/></g><!--link DAOInterface to MongoDB--><g id="link_DAOInterface_MongoDB"><path d="M121.12,755.56 C142.09,773.05 166.373,793.3061 187.323,810.7861 " fill="none" id="DAOInterface-to-MongoDB" style="stroke:#181818;stroke-width:1.0;"/><polygon fill="#181818" points="191.93,814.63,187.5821,805.7928,188.0908,811.4267,182.4569,811.9354,191.93,814.63" style="stroke:#181818;stroke-width:1.0;"/></g><!--link PersistenceService to FileIO--><g id="link_PersistenceService_FileIO"><path d="M142.17,649.26 C161.63,666.75 183.9674,686.8494 203.4174,704.3294 " fill="none" id="PersistenceService-to-FileIO" style="stroke:#181818;stroke-width:1.0;"/><polygon fill="#181818" points="207.88,708.34,203.8598,699.349,204.1612,704.9978,198.5123,705.2991,207.88,708.34" style="stroke:#181818;stroke-width:1.0;"/></g><!--link CoreController to CoreService--><g id="link_CoreController_CoreService"><path d="M197.28,193.88 C187.09,215.21 174.4373,241.6865 164.2573,262.9865 " fill="none" id="CoreController-to-CoreService" style="stroke:#181818;stroke-width:1.0;"/><polygon fill="#181818" points="161.67,268.4,169.1599,262.0046,163.8261,263.8888,161.9419,258.5549,161.67,268.4" style="stroke:#181818;stroke-width:1.0;"/></g><!--link PersistenceController to PersistenceService--><g id="link_PersistenceController_PersistenceService"><path d="M117,527.77 C117,549.1 117,574.99 117,596.29 " fill="none" id="PersistenceController-to-PersistenceService" style="stroke:#181818;stroke-width:1.0;"/><polygon fill="#181818" points="117,602.29,121,593.29,117,597.29,113,593.29,117,602.29" style="stroke:#181818;stroke-width:1.0;"/></g><!--link CoreService to KafkaService--><g id="link_CoreService_KafkaService"><path d="M196.96,315.26 C207.26,320.54 218.08,326.27 228,331.89 C251.73,345.32 272.6861,358.3505 292.7561,371.2805 " fill="none" id="CoreService-to-KafkaService" style="stroke:#181818;stroke-width:1.0;"/><polygon fill="#181818" points="297.8,374.53,292.4005,366.2932,293.5968,371.8221,288.0678,373.0183,297.8,374.53" style="stroke:#181818;stroke-width:1.0;"/></g><!--link CoreController to KafkaService--><g id="link_CoreController_KafkaService"><path d="M220.34,193.9 C244.11,237.14 293.0897,326.242 316.8197,369.412 " fill="none" id="CoreController-to-KafkaService" style="stroke:#181818;stroke-width:1.0;"/><polygon fill="#181818" points="319.71,374.67,318.88,364.8562,317.3015,370.2883,311.8693,368.7098,319.71,374.67" style="stroke:#181818;stroke-width:1.0;"/></g><!--SRC=[ZL7B2eCm4Bpx5OjtVw7GAeLGn4Bn91wsTXKn99AalPJ-UxNr5TkKtZOxCpl3fCMYmOh0Jnd4ydBbvCFT0yXIbaCGR20BfQ9G2gCavwHox-6rewQ71de_daZTwe8ctQm1w_d6ZwHqhGs9mdK-GeDdrAF5Gc0xHTk42KEgn6xLCwt5u2QrgHHf5nvBKSbeb_yqsjUSM69bF63Pu13mDO-AZhIkRkvp8lrTYsF_eLbUNl-8dUzxEelp1000]--></g></svg>