<?xml version="1.0" encoding="us-ascii" standalone="no"?><svg xmlns="http://www.w3.org/2000/svg" xmlns:xlink="http://www.w3.org/1999/xlink" contentStyleType="text/css" height="778px" preserveAspectRatio="none" style="width:516px;height:778px;background:#FFFFFF;" version="1.1" viewBox="0 0 516 778" width="516px" zoomAndPan="magnify"><defs/><g><!--cluster UI Module--><g id="cluster_UI Module"><path d="M221.5,6 L299.5,6 A3.75,3.75 0 0 1 302,8.5 L309,28.2969 L388.5,28.2969 A2.5,2.5 0 0 1 391,30.7969 L391,207.1 A2.5,2.5 0 0 1 388.5,209.6 L221.5,209.6 A2.5,2.5 0 0 1 219,207.1 L219,8.5 A2.5,2.5 0 0 1 221.5,6 " fill="none" style="stroke:#000000;stroke-width:1.5;"/><line style="stroke:#000000;stroke-width:1.5;" x1="219" x2="309" y1="28.2969" y2="28.2969"/><text fill="#000000" font-family="sans-serif" font-size="14" font-weight="bold" lengthAdjust="spacing" textLength="77" x="223" y="20.9951">UI Module</text></g><!--cluster Core--><g id="cluster_Core"><path d="M105.5,233.6 L144.5,233.6 A3.75,3.75 0 0 1 147,236.1 L154,255.8969 L322.5,255.8969 A2.5,2.5 0 0 1 325,258.3969 L325,540.99 A2.5,2.5 0 0 1 322.5,543.49 L105.5,543.49 A2.5,2.5 0 0 1 103,540.99 L103,236.1 A2.5,2.5 0 0 1 105.5,233.6 " fill="none" style="stroke:#000000;stroke-width:1.5;"/><line style="stroke:#000000;stroke-width:1.5;" x1="103" x2="154" y1="255.8969" y2="255.8969"/><text fill="#000000" font-family="sans-serif" font-size="14" font-weight="bold" lengthAdjust="spacing" textLength="38" x="107" y="248.5951">Core</text></g><!--cluster Database--><g id="cluster_Database"><path d="M8.5,567.49 L82.5,567.49 A3.75,3.75 0 0 1 85,569.99 L92,589.7869 L393.5,589.7869 A2.5,2.5 0 0 1 396,592.2869 L396,768.58 A2.5,2.5 0 0 1 393.5,771.08 L8.5,771.08 A2.5,2.5 0 0 1 6,768.58 L6,569.99 A2.5,2.5 0 0 1 8.5,567.49 " fill="none" style="stroke:#000000;stroke-width:1.5;"/><line style="stroke:#000000;stroke-width:1.5;" x1="6" x2="92" y1="589.7869" y2="589.7869"/><text fill="#000000" font-family="sans-serif" font-size="14" font-weight="bold" lengthAdjust="spacing" textLength="73" x="10" y="582.4851">Database</text></g><!--cluster Kafka--><g id="cluster_Kafka"><path d="M351.5,339.89 L396.5,339.89 A3.75,3.75 0 0 1 399,342.39 L406,362.1869 L506.5,362.1869 A2.5,2.5 0 0 1 509,364.6869 L509,434.69 A2.5,2.5 0 0 1 506.5,437.19 L351.5,437.19 A2.5,2.5 0 0 1 349,434.69 L349,342.39 A2.5,2.5 0 0 1 351.5,339.89 " fill="none" style="stroke:#000000;stroke-width:1.5;"/><line style="stroke:#000000;stroke-width:1.5;" x1="349" x2="406" y1="362.1869" y2="362.1869"/><text fill="#000000" font-family="sans-serif" font-size="14" font-weight="bold" lengthAdjust="spacing" textLength="44" x="353" y="354.8851">Kafka</text></g><!--entity UI--><g id="elem_UI"><rect fill="#F1F1F1" height="46.2969" rx="2.5" ry="2.5" style="stroke:#181818;stroke-width:0.5;" width="53" x="278.5" y="41"/><rect fill="#F1F1F1" height="10" style="stroke:#181818;stroke-width:0.5;" width="15" x="311.5" y="46"/><rect fill="#F1F1F1" height="2" style="stroke:#181818;stroke-width:0.5;" width="4" x="309.5" y="48"/><rect fill="#F1F1F1" height="2" style="stroke:#181818;stroke-width:0.5;" width="4" x="309.5" y="52"/><text fill="#000000" font-family="sans-serif" font-size="14" lengthAdjust="spacing" textLength="13" x="293.5" y="73.9951">UI</text></g><!--entity CoreController--><g id="elem_CoreController"><rect fill="#F1F1F1" height="46.2969" rx="2.5" ry="2.5" style="stroke:#181818;stroke-width:0.5;" width="140" x="235" y="147.3"/><rect fill="#F1F1F1" height="10" style="stroke:#181818;stroke-width:0.5;" width="15" x="355" y="152.3"/><rect fill="#F1F1F1" height="2" style="stroke:#181818;stroke-width:0.5;" width="4" x="353" y="154.3"/><rect fill="#F1F1F1" height="2" style="stroke:#181818;stroke-width:0.5;" width="4" x="353" y="158.3"/><text fill="#000000" font-family="sans-serif" font-size="14" lengthAdjust="spacing" textLength="100" x="250" y="180.2951">CoreController</text></g><!--entity CoreService--><g id="elem_CoreService"><rect fill="#F1F1F1" height="46.2969" rx="2.5" ry="2.5" style="stroke:#181818;stroke-width:0.5;" width="123" x="186.5" y="268.6"/><rect fill="#F1F1F1" height="10" style="stroke:#181818;stroke-width:0.5;" width="15" x="289.5" y="273.6"/><rect fill="#F1F1F1" height="2" style="stroke:#181818;stroke-width:0.5;" width="4" x="287.5" y="275.6"/><rect fill="#F1F1F1" height="2" style="stroke:#181818;stroke-width:0.5;" width="4" x="287.5" y="279.6"/><text fill="#000000" font-family="sans-serif" font-size="14" lengthAdjust="spacing" textLength="83" x="201.5" y="301.5951">CoreService</text></g><!--entity Controller--><g id="elem_Controller"><rect fill="#F1F1F1" height="46.2969" rx="2.5" ry="2.5" style="stroke:#181818;stroke-width:0.5;" width="107" x="160.5" y="374.89"/><rect fill="#F1F1F1" height="10" style="stroke:#181818;stroke-width:0.5;" width="15" x="247.5" y="379.89"/><rect fill="#F1F1F1" height="2" style="stroke:#181818;stroke-width:0.5;" width="4" x="245.5" y="381.89"/><rect fill="#F1F1F1" height="2" style="stroke:#181818;stroke-width:0.5;" width="4" x="245.5" y="385.89"/><text fill="#000000" font-family="sans-serif" font-size="14" lengthAdjust="spacing" textLength="67" x="175.5" y="407.8851">Controller</text></g><!--entity PersistenceController--><g id="elem_PersistenceController"><rect fill="#F1F1F1" height="46.2969" rx="2.5" ry="2.5" style="stroke:#181818;stroke-width:0.5;" width="189" x="119.5" y="481.19"/><rect fill="#F1F1F1" height="10" style="stroke:#181818;stroke-width:0.5;" width="15" x="288.5" y="486.19"/><rect fill="#F1F1F1" height="2" style="stroke:#181818;stroke-width:0.5;" width="4" x="286.5" y="488.19"/><rect fill="#F1F1F1" height="2" style="stroke:#181818;stroke-width:0.5;" width="4" x="286.5" y="492.19"/><text fill="#000000" font-family="sans-serif" font-size="14" lengthAdjust="spacing" textLength="149" x="134.5" y="514.1851">PersistenceController</text></g><!--entity PersistenceService--><g id="elem_PersistenceService"><rect fill="#F1F1F1" height="46.2969" rx="2.5" ry="2.5" style="stroke:#181818;stroke-width:0.5;" width="172" x="128" y="602.49"/><rect fill="#F1F1F1" height="10" style="stroke:#181818;stroke-width:0.5;" width="15" x="280" y="607.49"/><rect fill="#F1F1F1" height="2" style="stroke:#181818;stroke-width:0.5;" width="4" x="278" y="609.49"/><rect fill="#F1F1F1" height="2" style="stroke:#181818;stroke-width:0.5;" width="4" x="278" y="613.49"/><text fill="#000000" font-family="sans-serif" font-size="14" lengthAdjust="spacing" textLength="132" x="143" y="635.4851">PersistenceService</text></g><!--entity Postgres--><g id="elem_Postgres"><rect fill="#F1F1F1" height="46.2969" rx="2.5" ry="2.5" style="stroke:#181818;stroke-width:0.5;" width="102" x="22" y="708.78"/><rect fill="#F1F1F1" height="10" style="stroke:#181818;stroke-width:0.5;" width="15" x="104" y="713.78"/><rect fill="#F1F1F1" height="2" style="stroke:#181818;stroke-width:0.5;" width="4" x="102" y="715.78"/><rect fill="#F1F1F1" height="2" style="stroke:#181818;stroke-width:0.5;" width="4" x="102" y="719.78"/><text fill="#000000" font-family="sans-serif" font-size="14" lengthAdjust="spacing" textLength="62" x="37" y="741.7751">Postgres</text></g><!--entity MongoDB--><g id="elem_MongoDB"><rect fill="#F1F1F1" height="46.2969" rx="2.5" ry="2.5" style="stroke:#181818;stroke-width:0.5;" width="109" x="159.5" y="708.78"/><rect fill="#F1F1F1" height="10" style="stroke:#181818;stroke-width:0.5;" width="15" x="248.5" y="713.78"/><rect fill="#F1F1F1" height="2" style="stroke:#181818;stroke-width:0.5;" width="4" x="246.5" y="715.78"/><rect fill="#F1F1F1" height="2" style="stroke:#181818;stroke-width:0.5;" width="4" x="246.5" y="719.78"/><text fill="#000000" font-family="sans-serif" font-size="14" lengthAdjust="spacing" textLength="69" x="174.5" y="741.7751">MongoDB</text></g><!--entity FileIO--><g id="elem_FileIO"><rect fill="#F1F1F1" height="46.2969" rx="2.5" ry="2.5" style="stroke:#181818;stroke-width:0.5;" width="77" x="303.5" y="708.78"/><rect fill="#F1F1F1" height="10" style="stroke:#181818;stroke-width:0.5;" width="15" x="360.5" y="713.78"/><rect fill="#F1F1F1" height="2" style="stroke:#181818;stroke-width:0.5;" width="4" x="358.5" y="715.78"/><rect fill="#F1F1F1" height="2" style="stroke:#181818;stroke-width:0.5;" width="4" x="358.5" y="719.78"/><text fill="#000000" font-family="sans-serif" font-size="14" lengthAdjust="spacing" textLength="37" x="318.5" y="741.7751">FileIO</text></g><!--entity KafkaService--><g id="elem_KafkaService"><rect fill="#F1F1F1" height="46.2969" rx="2.5" ry="2.5" style="stroke:#181818;stroke-width:0.5;" width="127" x="365.5" y="374.89"/><rect fill="#F1F1F1" height="10" style="stroke:#181818;stroke-width:0.5;" width="15" x="472.5" y="379.89"/><rect fill="#F1F1F1" height="2" style="stroke:#181818;stroke-width:0.5;" width="4" x="470.5" y="381.89"/><rect fill="#F1F1F1" height="2" style="stroke:#181818;stroke-width:0.5;" width="4" x="470.5" y="385.89"/><text fill="#000000" font-family="sans-serif" font-size="14" lengthAdjust="spacing" textLength="87" x="380.5" y="407.8851">KafkaService</text></g><!--link UI to CoreController--><g id="link_UI_CoreController"><path d="M305,87.78 C305,105.28 305,123.38 305,140.86 " fill="none" id="UI-to-CoreController" style="stroke:#181818;stroke-width:1.0;"/><polygon fill="#181818" points="305,146.86,309,137.86,305,141.86,301,137.86,305,146.86" style="stroke:#181818;stroke-width:1.0;"/></g><!--link CoreService to Controller--><g id="link_CoreService_Controller"><path d="M240.62,315.37 C234.92,332.87 228.9201,351.2656 223.2201,368.7456 " fill="none" id="CoreService-to-Controller" style="stroke:#181818;stroke-width:1.0;"/><polygon fill="#181818" points="221.36,374.45,227.9531,367.1335,222.9101,369.6964,220.3473,364.6533,221.36,374.45" style="stroke:#181818;stroke-width:1.0;"/></g><!--link Controller to PersistenceController--><g id="link_Controller_PersistenceController"><path d="M203.27,421.67 C200.57,439.17 199.6641,457.3403 202.3641,474.8203 " fill="none" id="Controller-to-PersistenceController" style="stroke:#181818;stroke-width:1.0;"/><polygon fill="#181818" points="203.28,480.75,205.8593,471.2449,202.5167,475.8086,197.953,472.4661,203.28,480.75" style="stroke:#181818;stroke-width:1.0;"/></g><!--link Controller to PersistenceController--><g id="link_Controller_PersistenceController"><path d="M225.36,421.67 C228.22,439.17 229.1788,457.3487 226.3188,474.8287 " fill="none" id="Controller-to-PersistenceController-1" style="stroke:#181818;stroke-width:1.0;"/><polygon fill="#181818" points="225.35,480.75,230.7507,472.514,226.1573,475.8156,222.8557,471.2222,225.35,480.75" style="stroke:#181818;stroke-width:1.0;"/></g><!--link PersistenceService to Postgres--><g id="link_PersistenceService_Postgres"><path d="M183.41,649.27 C159.75,666.76 131.9937,687.2918 108.3637,704.7718 " fill="none" id="PersistenceService-to-Postgres" style="stroke:#181818;stroke-width:1.0;"/><polygon fill="#181818" points="103.54,708.34,113.1543,706.2034,107.5597,705.3665,108.3967,699.7719,103.54,708.34" style="stroke:#181818;stroke-width:1.0;"/></g><!--link PersistenceService to MongoDB--><g id="link_PersistenceService_MongoDB"><path d="M214,649.27 C214,666.76 214,684.86 214,702.34 " fill="none" id="PersistenceService-to-MongoDB" style="stroke:#181818;stroke-width:1.0;"/><polygon fill="#181818" points="214,708.34,218,699.34,214,703.34,210,699.34,214,708.34" style="stroke:#181818;stroke-width:1.0;"/></g><!--link PersistenceService to FileIO--><g id="link_PersistenceService_FileIO"><path d="M241.77,649.27 C263.24,666.76 288.168,687.0707 309.628,704.5507 " fill="none" id="PersistenceService-to-FileIO" style="stroke:#181818;stroke-width:1.0;"/><polygon fill="#181818" points="314.28,708.34,309.8281,699.5547,310.4033,705.1823,304.7758,705.7575,314.28,708.34" style="stroke:#181818;stroke-width:1.0;"/></g><!--link CoreController to CoreService--><g id="link_CoreController_CoreService"><path d="M294.28,193.89 C284.09,215.21 271.4373,241.6965 261.2573,262.9965 " fill="none" id="CoreController-to-CoreService" style="stroke:#181818;stroke-width:1.0;"/><polygon fill="#181818" points="258.67,268.41,266.1599,262.0146,260.8261,263.8988,258.9419,258.5649,258.67,268.41" style="stroke:#181818;stroke-width:1.0;"/></g><!--link PersistenceController to PersistenceService--><g id="link_PersistenceController_PersistenceService"><path d="M214,527.78 C214,549.11 214,575 214,596.3 " fill="none" id="PersistenceController-to-PersistenceService" style="stroke:#181818;stroke-width:1.0;"/><polygon fill="#181818" points="214,602.3,218,593.3,214,597.3,210,593.3,214,602.3" style="stroke:#181818;stroke-width:1.0;"/></g><!--link CoreService to KafkaService--><g id="link_CoreService_KafkaService"><path d="M293.96,315.26 C304.26,320.55 315.08,326.28 325,331.89 C348.73,345.32 369.6861,358.3605 389.7561,371.2905 " fill="none" id="CoreService-to-KafkaService" style="stroke:#181818;stroke-width:1.0;"/><polygon fill="#181818" points="394.8,374.54,389.4005,366.3032,390.5968,371.8321,385.0678,373.0283,394.8,374.54" style="stroke:#181818;stroke-width:1.0;"/></g><!--link CoreController to KafkaService--><g id="link_CoreController_KafkaService"><path d="M317.34,193.9 C341.11,237.14 390.0897,326.252 413.8197,369.422 " fill="none" id="CoreController-to-KafkaService" style="stroke:#181818;stroke-width:1.0;"/><polygon fill="#181818" points="416.71,374.68,415.88,364.8662,414.3015,370.2983,408.8693,368.7198,416.71,374.68" style="stroke:#181818;stroke-width:1.0;"/></g><!--SRC=[AqXCpavCJrLG2lLKyCrFASr9LLAevb9GY0xrZ5NGrRLJY7REBqfrpiyhAShFoKajYkMgvIg0wG59GPM3cC6fHMMPoQbmVGWz2YXSY7n0Qb5nPd59QbuoBkDT4aiIanABOLOWQK2rAI2_k2IzABKu5gygt_oyz7mN9_oAt39pKZtzKLpXdPYMdGXr0fWDqm5KX1uuY123AoBQupZ4CVGWcumUvgZkm-uw53K0]--></g></svg>